<?xml version="1.0" standalone="no"?>
<!DOCTYPE svg PUBLIC "-//W3C//DTD SVG 20010904//EN"
 "http://www.w3.org/TR/2001/REC-SVG-20010904/DTD/svg10.dtd">
<svg version="1.0" xmlns="http://www.w3.org/2000/svg"
 width="225.000000pt" height="225.000000pt" viewBox="0 0 225.000000 225.000000"
 preserveAspectRatio="xMidYMid meet">
<metadata>
Created by potrace 1.14, written by Peter Selinger 2001-2017
</metadata>
<g transform="translate(0.000000,225.000000) scale(0.100000,-0.100000)"
fill="#000000" stroke="none">
<path d="M773 2225 c-410 -51 -601 -187 -691 -490 -28 -96 -42 -179 -57 -345
-6 -61 -5 -464 0 -520 12 -122 17 -159 31 -233 30 -157 112 -328 189 -395 114
-100 269 -166 440 -188 28 -3 52 -8 55 -9 12 -7 266 -18 411 -18 626 2 896
130 1008 480 56 174 69 305 66 653 -4 332 -5 344 -40 505 -76 343 -270 501
-685 560 -99 14 -613 14 -727 0z m413 -1371 c12 -7 26 -26 31 -41 14 -42 10
-463 -5 -490 -17 -31 -63 -53 -98 -47 -16 2 -41 18 -56 34 l-28 30 0 234 c0
223 1 234 21 260 36 46 83 53 135 20z"/>
</g>
</svg>
